# xmcd CD database file
#
# Track frame offsets:
#	150
#	16181
#	31819
#	46743
#	63947
#	82472
#	99739
#	115538
#	133810
#	151580
#
# Disc length: 2259 seconds
#
# Revision: 4
# Processed by: cddbd v1.5.2PL0 Copyright (c) Steve Scherf et al.
# Submitted via: CDex 1.89
#
DISCID=7308d10a
DTITLE=The Bosshoss - Dos Bros [CD 2)
DYEAR=2015
DGENRE=Alt Rock
TTITLE0=No Diggity (Feat. Xavier Naidoo)
TTITLE1=Jolene (Feat. The Common Linnets) 
TTITLE2=Geronimo (Feat. Aura Dione)
TTITLE3=The Beautiful People
TTITLE4=Walking Away (Feat. Rea Garvey)
TTITLE5=What I Did For Love (Feat. Nena)
TTITLE6=Candy Shop
TTITLE7=Thrift Shop
TTITLE8=Easy
TTITLE9=Boom Boom (Feat. The Graveltones)
EXTD=YEAR: 2015
EXTT0=
EXTT1=
EXTT2=
EXTT3=
EXTT4=
EXTT5=
EXTT6=
EXTT7=
EXTT8=
EXTT9=
PLAYORDER=
